<?xml version="1.0" encoding="utf-8"?>
<!-- Generator: Adobe Illustrator 22.0.1, SVG Export Plug-In . SVG Version: 6.00 Build 0)  -->
<svg version="1.1" id="Capa_1" xmlns="http://www.w3.org/2000/svg" xmlns:xlink="http://www.w3.org/1999/xlink" x="0px" y="0px"
	 viewBox="0 0 913.2 600" style="enable-background:new 0 0 913.2 600;" xml:space="preserve">
<style type="text/css">
	.st0{fill:#371ABE;}
	.st1{fill:#C38334;}
	.st2{fill:#6CC32A;}
	.st3{fill:#9E0142;}
	.st4{font-family:'Arial-BoldMT';}
	.st5{font-size:10px;}
	.st6{font-family:'ArialMT';}
	.st7{font-size:16.3643px;}
	.st8{font-size:19.6371px;}
</style>
<path class="st0" d="M319.2,161c76.8,0.3,138.8,62.7,138.5,139.5c-0.1,19.2-4.1,38.2-11.9,55.7l-63-28.1c15.5-35.4-0.6-76.7-36-92.2
	c-8.7-3.8-18.1-5.8-27.6-5.9V161z">
<title>Modern orchestra</title>
</path>
<path class="st1" d="M445.4,357.1c-31.5,70-113.9,101.1-183.8,69.6c-1.7-0.8-3.3-1.5-5-2.4l31-61.6c34.7,17.1,76.6,3,93.8-31.7
	c0.3-0.7,0.7-1.4,1-2L445.4,357.1z">
<title>Early Romantic orchestra</title>
</path>
<path class="st2" d="M255.7,423.9C187.3,389.1,160,305.5,194.8,237c7.4-14.5,17.2-27.6,29.2-38.7l46.9,50.7
	c-28.2,26.5-29.6,70.8-3.1,98.9c5.5,5.9,12,10.7,19.1,14.4L255.7,423.9z">
<title>Late Romantic orchestra</title>
</path>
<path class="st3" d="M224.7,197.6c25.5-23.4,58.9-36.5,93.5-36.6v69c-17.3,0.1-33.9,6.6-46.7,18.3L224.7,197.6z">
<title>Classical orchestra</title>
</path>
<path class="st0" d="M319.2,91c21.4,0.1,42.6,3.4,63,9.9L361,166.6c-13.5-4.3-27.7-6.5-41.9-6.6V91z">
<title>Brass</title>
</path>
<path class="st0" d="M383.1,101.2c58.3,18.9,105.4,62.5,128.8,119.1L448,246.5c-15.7-37.8-47.1-66.9-86-79.6L383.1,101.2z">
<title>Percussion</title>
</path>
<path class="st0" d="M512.3,221.2c6.4,15.8,10.9,32.3,13.3,49.1l-68.3,9.6c-1.6-11.2-4.6-22.1-8.8-32.6L512.3,221.2z">
<title>Woodwinds</title>
</path>
<path class="st0" d="M525.7,271.3c1.7,12.6,2.3,25.2,1.8,37.9l-68.9-3.2c0.4-8.4,0-16.8-1.2-25.1L525.7,271.3z">
<title>Keyboards</title>
</path>
<path class="st0" d="M527.4,310.2c-1.3,25.7-7.3,51-17.7,74.5l-63-28.1c6.9-15.7,10.9-32.5,11.8-49.6L527.4,310.2z">
<title>Strings</title>
</path>
<path class="st1" d="M509.3,385.7c-14.1,31.5-35.9,59-63.2,80l-41.9-54.8c18.2-14,32.7-32.4,42.2-53.3L509.3,385.7z">
<title>Woodwinds</title>
</path>
<path class="st1" d="M445.3,466.3c-24,18.2-51.6,31.1-81,37.7l-14.9-67.4c19.6-4.4,38-13,54-25.1L445.3,466.3z">
<title>Percussion</title>
</path>
<path class="st1" d="M363.3,504.2c-25.1,5.5-51.1,6.3-76.5,2.4l10.7-68.2c16.9,2.6,34.2,2.1,50.9-1.6L363.3,504.2z">
<title>Strings</title>
</path>
<path class="st1" d="M285.8,506.4c-21.1-3.4-41.6-9.9-60.7-19.5l31-61.6c12.7,6.3,26.3,10.7,40.3,13L285.8,506.4z">
<title>Brass</title>
</path>
<path class="st2" d="M224.2,486.4c-30.8-15.6-57.2-38.6-77-66.9l56.7-39.3c13.2,18.9,30.8,34.2,51.3,44.6L224.2,486.4z">
<title>Woodwinds</title>
</path>
<path class="st2" d="M146.7,418.7c-24.6-35.7-37.5-78.1-37-121.5l69,1.1c-0.3,28.9,8.3,57.2,24.7,81.1L146.7,418.7z">
<title>Percussion</title>
</path>
<path class="st2" d="M109.7,296.2c0.1-8.3,0.8-16.7,1.9-24.9L180,281c-0.7,5.4-1.2,10.9-1.3,16.4L109.7,296.2z">
<title>Keyboards</title>
</path>
<path class="st2" d="M111.8,270.3c3.7-25.5,12-50.1,24.6-72.5l60.1,33.9c-8.4,15-13.9,31.3-16.4,48.3L111.8,270.3z">
<title>Strings</title>
</path>
<path class="st2" d="M136.8,196.9c10.5-18.6,23.9-35.5,39.5-50l46.9,50.7c-10.4,9.7-19.3,20.9-26.3,33.3L136.8,196.9z">
<title>Brass</title>
</path>
<path class="st3" d="M177.1,146.2c12.5-11.5,26.4-21.5,41.3-29.7l32.9,60.6c-9.9,5.4-19.1,12-27.4,19.7L177.1,146.2z">
<title>Woodwinds</title>
</path>
<path class="st3" d="M219.3,116.1c18.8-10.2,39.1-17.4,60.1-21.4l12.8,67.8c-14,2.7-27.4,7.5-39.9,14.2L219.3,116.1z">
<title>Strings</title>
</path>
<path class="st3" d="M280.4,94.5c8.2-1.5,16.5-2.6,24.8-3.1l4.3,68.9c-5.5,0.4-10.9,1-16.3,2L280.4,94.5z">
<title>Brass</title>
</path>
<path class="st3" d="M306.2,91.4c4-0.2,8-0.4,12-0.4v69c-2.6,0-5.1,0.1-7.7,0.2L306.2,91.4z">
<title>Percussion</title>
</path>
<path class="st0" d="M319.2,21c5.5,0,10.9,0.2,16.3,0.5l-4.3,68.9c-4-0.2-8-0.4-12.1-0.4V21z">
<title>Baritone horn</title>
</path>
<path class="st0" d="M336.5,21.6c5.4,0.3,10.9,0.9,16.3,1.5l-8.6,68.5c-4-0.5-8-0.9-12-1.1L336.5,21.6z">
<title>French Horns</title>
</path>
<path class="st0" d="M353.8,23.2c5.4,0.7,10.8,1.5,16.2,2.5l-12.8,67.8c-4-0.7-7.9-1.4-11.9-1.9L353.8,23.2z">
<title>Trombones</title>
</path>
<path class="st0" d="M370.9,25.9c5.4,1,10.7,2.2,16,3.5l-17,66.9c-3.9-1-7.8-1.9-11.8-2.6L370.9,25.9z">
<title>Trumpets</title>
</path>
<path class="st0" d="M387.9,29.7c5.3,1.4,10.5,2.9,15.7,4.5l-21.1,65.7c-3.8-1.2-7.7-2.3-11.6-3.3L387.9,29.7z">
<title>Tubas</title>
</path>
<path class="st0" d="M404.5,34.5c5.2,1.7,10.3,3.5,15.4,5.5l-25.2,64.2c-3.7-1.5-7.5-2.8-11.4-4L404.5,34.5z">
<title>Bass Drum</title>
</path>
<path class="st0" d="M420.9,40.4c5.1,2,10.1,4.1,15,6.4l-29.1,62.6c-3.7-1.7-7.3-3.3-11.1-4.7L420.9,40.4z">
<title>Cymbals</title>
</path>
<path class="st0" d="M436.8,47.2c4.9,2.3,9.8,4.8,14.6,7.4l-32.9,60.6c-3.5-1.9-7.1-3.7-10.8-5.4L436.8,47.2z">
<title>Glockenspiel</title>
</path>
<path class="st0" d="M452.3,55.1c4.8,2.6,9.5,5.4,14.1,8.3l-36.6,58.5c-3.4-2.1-6.9-4.2-10.4-6.1L452.3,55.1z">
<title>Marimba</title>
</path>
<path class="st0" d="M467.3,63.9c4.6,2.9,9.1,5.9,13.6,9.1l-40.2,56.1c-3.3-2.3-6.6-4.6-10-6.7L467.3,63.9z">
<title>Snare Drum</title>
</path>
<path class="st0" d="M481.7,73.6c4.4,3.2,8.8,6.5,13,9.9L451,137c-3.1-2.5-6.3-5-9.6-7.3L481.7,73.6z">
<title>Tam-tam</title>
</path>
<path class="st0" d="M495.4,84.1c4.2,3.5,8.3,7,12.3,10.7l-46.9,50.7c-3-2.7-6-5.4-9.1-7.9L495.4,84.1z">
<title>Tambourine</title>
</path>
<path class="st0" d="M508.5,95.5c4,3.7,7.9,7.5,11.7,11.5l-49.9,47.6c-2.8-2.9-5.6-5.7-8.6-8.5L508.5,95.5z">
<title>Tenor drum</title>
</path>
<path class="st0" d="M520.9,107.7c3.8,4,7.4,8,10.9,12.2L479,164.4c-2.6-3.1-5.3-6.1-8.1-9L520.9,107.7z">
<title>Timpani</title>
</path>
<path class="st0" d="M532.4,120.7c3.5,4.2,6.9,8.5,10.1,12.8l-55.4,41.1c-2.4-3.2-4.9-6.4-7.5-9.5L532.4,120.7z">
<title>Triangle</title>
</path>
<path class="st0" d="M543.1,134.3c3.2,4.4,6.3,8.9,9.3,13.4l-57.9,37.6c-2.2-3.4-4.5-6.7-6.9-9.9L543.1,134.3z">
<title>Tubular bells</title>
</path>
<path class="st0" d="M553,148.6c3,4.6,5.8,9.2,8.5,14l-60.1,33.9c-2-3.5-4.1-6.9-6.2-10.3L553,148.6z">
<title>Vibraphone</title>
</path>
<path class="st0" d="M562,163.4c2.7,4.8,5.2,9.6,7.6,14.5L507.5,208c-1.8-3.6-3.6-7.2-5.6-10.7L562,163.4z">
<title>Wood block</title>
</path>
<path class="st0" d="M570,178.8c2.4,4.9,4.6,9.9,6.7,14.9l-63.8,26.2c-1.5-3.7-3.2-7.4-4.9-11L570,178.8z">
<title>Xylophone</title>
</path>
<path class="st0" d="M577,194.7c2.1,5,4,10.2,5.7,15.3l-65.4,22.1c-1.3-3.8-2.7-7.6-4.2-11.3L577,194.7z">
<title>Bassoons</title>
</path>
<path class="st0" d="M583.1,211c1.7,5.2,3.3,10.4,4.8,15.6l-66.6,18c-1.1-3.9-2.2-7.7-3.5-11.5L583.1,211z">
<title>Clarinets</title>
</path>
<path class="st0" d="M588.1,227.6c1.4,5.3,2.7,10.6,3.8,15.9l-67.6,13.9c-0.8-3.9-1.7-7.9-2.8-11.7L588.1,227.6z">
<title>Flutes</title>
</path>
<path class="st0" d="M592.1,244.5c1.1,5.3,2,10.7,2.8,16.1l-68.3,9.6c-0.6-4-1.3-7.9-2.1-11.9L592.1,244.5z">
<title>Oboes</title>
</path>
<path class="st0" d="M595,261.6c0.8,5.4,1.3,10.8,1.8,16.3l-68.8,5.4c-0.3-4-0.8-8-1.3-12L595,261.6z">
<title>Celesta</title>
</path>
<path class="st0" d="M596.9,278.8c0.4,5.4,0.7,10.9,0.8,16.3l-69,1.1c-0.1-4-0.3-8-0.6-12L596.9,278.8z">
<title>Piano</title>
</path>
<path class="st0" d="M597.6,296.2c0.1,5.5,0,10.9-0.3,16.4l-68.9-3.2c0.2-4,0.2-8,0.2-12.1L597.6,296.2z">
<title>Pipe organ</title>
</path>
<path class="st0" d="M597.3,313.5c-0.3,5.4-0.7,10.9-1.3,16.3l-68.6-7.5c0.4-4,0.7-8,0.9-12L597.3,313.5z">
<title>Cellos</title>
</path>
<path class="st0" d="M596,330.8c-0.6,5.4-1.4,10.8-2.3,16.2l-68-11.7c0.7-4,1.2-7.9,1.7-11.9L596,330.8z">
<title>Double basses</title>
</path>
<path class="st0" d="M593.5,348c-0.9,5.4-2,10.7-3.3,16l-67.1-16c0.9-3.9,1.7-7.9,2.4-11.8L593.5,348z">
<title>Harps</title>
</path>
<path class="st0" d="M590,365c-1.3,5.3-2.7,10.6-4.3,15.8l-66-20.1c1.2-3.9,2.2-7.7,3.2-11.6L590,365z">
<title>Violas</title>
</path>
<path class="st0" d="M585.4,381.7c-1.6,5.2-3.3,10.4-5.2,15.5l-64.6-24.2c1.4-3.8,2.7-7.6,3.9-11.4L585.4,381.7z">
<title>Violins 1</title>
</path>
<path class="st0" d="M579.8,398.2c-1.9,5.1-4,10.2-6.2,15.1l-63-28.1c1.6-3.7,3.2-7.4,4.6-11.2L579.8,398.2z">
<title>Violins 2</title>
</path>
<path class="st1" d="M573.2,414.2c-2.2,5-4.6,9.9-7.1,14.7l-61.1-32c1.9-3.6,3.6-7.2,5.3-10.9L573.2,414.2z">
<title>Bass Clarinet</title>
</path>
<path class="st1" d="M565.6,429.8c-2.5,4.8-5.2,9.6-8,14.2l-59-35.7c2.1-3.4,4-6.9,5.9-10.5L565.6,429.8z">
<title>Bassoons</title>
</path>
<path class="st1" d="M557.1,444.9c-2.8,4.7-5.8,9.2-8.9,13.7l-56.7-39.3c2.3-3.3,4.5-6.7,6.6-10.1L557.1,444.9z">
<title>Clarinets</title>
</path>
<path class="st1" d="M547.6,459.4c-3.1,4.5-6.4,8.9-9.7,13.1l-54.1-42.8c2.5-3.2,4.9-6.4,7.2-9.7L547.6,459.4z">
<title>Contrabassoon</title>
</path>
<path class="st1" d="M537.3,473.4c-3.4,4.3-6.9,8.4-10.5,12.5l-51.4-46.1c2.7-3,5.3-6.1,7.8-9.2L537.3,473.4z">
<title>English Horn</title>
</path>
<path class="st1" d="M526.1,486.6c-3.6,4.1-7.4,8-11.3,11.8l-48.4-49.2c2.9-2.8,5.6-5.7,8.3-8.7L526.1,486.6z">
<title>Flutes</title>
</path>
<path class="st1" d="M514.1,499.2c-3.9,3.8-7.9,7.5-12,11.1l-45.3-52.1c3-2.6,6-5.4,8.9-8.2L514.1,499.2z">
<title>Oboes</title>
</path>
<path class="st1" d="M501.3,510.9c-4.1,3.6-8.3,7-12.7,10.3l-41.9-54.8c3.2-2.5,6.3-5,9.3-7.6L501.3,510.9z">
<title>Piccolo</title>
</path>
<path class="st1" d="M487.8,521.9c-4.3,3.3-8.8,6.5-13.3,9.5l-38.4-57.3c3.3-2.2,6.6-4.6,9.8-7L487.8,521.9z">
<title>Bass Drum</title>
</path>
<path class="st1" d="M473.7,532c-4.5,3-9.2,5.9-13.9,8.7L425,481.1c3.5-2,6.9-4.2,10.2-6.4L473.7,532z">
<title>Cymbals</title>
</path>
<path class="st1" d="M459,541.1c-4.7,2.7-9.5,5.3-14.4,7.8l-31-61.6c3.6-1.8,7.1-3.7,10.6-5.8L459,541.1z">
<title>Glockenspiel</title>
</path>
<path class="st1" d="M443.7,549.4c-4.9,2.4-9.8,4.7-14.8,6.9l-27.1-63.4c3.7-1.6,7.3-3.3,10.9-5.1L443.7,549.4z">
<title>Snare Drum</title>
</path>
<path class="st1" d="M428,556.7c-5,2.1-10.1,4.1-15.2,6l-23.2-65c3.8-1.4,7.5-2.8,11.2-4.4L428,556.7z">
<title>Tambourine</title>
</path>
<path class="st1" d="M411.8,563c-5.1,1.8-10.3,3.5-15.6,5l-19.1-66.3c3.9-1.1,7.7-2.4,11.5-3.7L411.8,563z">
<title>Timpani</title>
</path>
<path class="st1" d="M395.3,568.3c-5.2,1.5-10.5,2.8-15.9,4l-14.9-67.4c3.9-0.9,7.8-1.9,11.7-3L395.3,568.3z">
<title>Triangle</title>
</path>
<path class="st1" d="M378.5,572.5c-5.3,1.2-10.7,2.2-16.1,3l-10.7-68.2c4-0.6,7.9-1.4,11.9-2.2L378.5,572.5z">
<title>Cellos</title>
</path>
<path class="st1" d="M361.4,575.7c-5.4,0.8-10.8,1.5-16.2,2l-6.4-68.7c4-0.4,8-0.9,12-1.5L361.4,575.7z">
<title>Double basses</title>
</path>
<path class="st1" d="M344.2,577.8c-5.4,0.5-10.9,0.8-16.3,1l-2.1-69c4-0.1,8-0.4,12-0.7L344.2,577.8z">
<title>Harps</title>
</path>
<path class="st1" d="M326.9,578.9c-5.5,0.2-10.9,0.2-16.4,0l2.1-69c4,0.1,8,0.1,12.1,0L326.9,578.9z">
<title>Violas</title>
</path>
<path class="st1" d="M309.5,578.8c-5.4-0.2-10.9-0.5-16.3-1l6.4-68.7c4,0.4,8,0.6,12,0.7L309.5,578.8z">
<title>Violins 1</title>
</path>
<path class="st1" d="M292.2,577.7c-5.4-0.5-10.8-1.2-16.2-2l10.7-68.2c4,0.6,8,1.1,12,1.5L292.2,577.7z">
<title>Violins 2</title>
</path>
<path class="st1" d="M275,575.6c-5.4-0.9-10.7-1.9-16.1-3l14.9-67.4c3.9,0.9,7.9,1.6,11.9,2.2L275,575.6z">
<title>Cornet</title>
</path>
<path class="st1" d="M257.9,572.3c-5.3-1.2-10.6-2.5-15.9-4l19.1-66.3c3.9,1.1,7.8,2.1,11.7,3L257.9,572.3z">
<title>French Horns</title>
</path>
<path class="st1" d="M241.1,568c-5.2-1.5-10.4-3.2-15.6-5l23.2-65c3.8,1.3,7.6,2.6,11.5,3.7L241.1,568z">
<title>Trombones</title>
</path>
<path class="st1" d="M224.6,562.7c-5.1-1.8-10.2-3.8-15.2-6l27.1-63.4c3.7,1.6,7.4,3,11.2,4.4L224.6,562.7z">
<title>Trumpets</title>
</path>
<path class="st1" d="M208.4,556.3c-5-2.2-10-4.5-14.8-6.9l31-61.6c3.6,1.8,7.2,3.5,10.9,5.1L208.4,556.3z">
<title>Tubas</title>
</path>
<path class="st2" d="M192.7,549c-4.9-2.5-9.7-5.1-14.4-7.8l34.8-59.6c3.5,2,7,3.9,10.6,5.8L192.7,549z">
<title>Bass Clarinet</title>
</path>
<path class="st2" d="M177.5,540.6c-4.7-2.8-9.3-5.7-13.9-8.7l38.4-57.3c3.3,2.2,6.8,4.4,10.2,6.4L177.5,540.6z">
<title>Bassoons</title>
</path>
<path class="st2" d="M162.8,531.4c-4.5-3-9-6.2-13.3-9.5l41.9-54.8c3.2,2.4,6.5,4.8,9.8,7L162.8,531.4z">
<title>Clarinets</title>
</path>
<path class="st2" d="M148.7,521.3c-4.3-3.3-8.6-6.8-12.7-10.3l45.3-52.1c3,2.6,6.2,5.2,9.3,7.6L148.7,521.3z">
<title>Contrabassoon</title>
</path>
<path class="st2" d="M135.3,510.3c-4.1-3.6-8.1-7.3-12-11.1l48.4-49.2c2.9,2.8,5.8,5.5,8.9,8.2L135.3,510.3z">
<title>English Horn</title>
</path>
<path class="st2" d="M122.6,498.5c-3.9-3.8-7.6-7.8-11.3-11.8l51.4-46.1c2.7,3,5.5,5.9,8.3,8.7L122.6,498.5z">
<title>Flutes</title>
</path>
<path class="st2" d="M110.6,485.9c-3.6-4.1-7.1-8.2-10.5-12.5l54.1-42.8c2.5,3.1,5.1,6.2,7.8,9.2L110.6,485.9z">
<title>Oboes</title>
</path>
<path class="st2" d="M99.5,472.6c-3.4-4.3-6.6-8.7-9.7-13.1l56.7-39.3c2.3,3.3,4.7,6.5,7.2,9.7L99.5,472.6z">
<title>Piccolo</title>
</path>
<path class="st2" d="M89.2,458.6c-3.1-4.5-6.1-9.1-8.9-13.7l59-35.7c2.1,3.4,4.3,6.8,6.6,10.1L89.2,458.6z">
<title>Bass Drum</title>
</path>
<path class="st2" d="M79.7,444.1c-2.8-4.7-5.5-9.4-8-14.2l61.1-32c1.9,3.6,3.8,7.1,5.9,10.5L79.7,444.1z">
<title>Chimes</title>
</path>
<path class="st2" d="M71.2,428.9c-2.5-4.8-4.9-9.7-7.1-14.7l63-28.1c1.6,3.7,3.4,7.3,5.3,10.9L71.2,428.9z">
<title>Cymbals</title>
</path>
<path class="st2" d="M63.7,413.3c-2.2-5-4.3-10-6.2-15.1l64.6-24.2c1.4,3.8,2.9,7.5,4.6,11.2L63.7,413.3z">
<title>Glockenspiel</title>
</path>
<path class="st2" d="M57.2,397.2c-1.9-5.1-3.6-10.3-5.2-15.5l66-20.1c1.2,3.8,2.5,7.7,3.9,11.4L57.2,397.2z">
<title>Snare Drum</title>
</path>
<path class="st2" d="M51.6,380.8c-1.6-5.2-3-10.5-4.3-15.8l67.1-16c0.9,3.9,2,7.8,3.2,11.6L51.6,380.8z">
<title>Tam-tam</title>
</path>
<path class="st2" d="M47.1,364c-1.3-5.3-2.3-10.6-3.3-16l68-11.7c0.7,4,1.5,7.9,2.4,11.8L47.1,364z">
<title>Tambourine</title>
</path>
<path class="st2" d="M43.7,347c-0.9-5.4-1.7-10.8-2.3-16.2l68.6-7.5c0.4,4,1,8,1.7,11.9L43.7,347z">
<title>Timpani</title>
</path>
<path class="st2" d="M41.3,329.8c-0.6-5.4-1-10.9-1.3-16.3l68.9-3.2c0.2,4,0.5,8,0.9,12L41.3,329.8z">
<title>Triangle</title>
</path>
<path class="st2" d="M40,312.5c-0.2-5.4-0.3-10.9-0.3-16.4l69,1.1c-0.1,4,0,8,0.2,12.1L40,312.5z">
<title>Xylophone</title>
</path>
<path class="st2" d="M39.7,295.2c0.1-5.5,0.3-10.9,0.8-16.3l68.8,5.4c-0.3,4-0.5,8-0.6,12L39.7,295.2z">
<title>Celesta</title>
</path>
<path class="st2" d="M40.6,277.8c0.4-5.4,1-10.9,1.8-16.3l68.3,9.6c-0.6,4-1,8-1.3,12L40.6,277.8z">
<title>Piano</title>
</path>
<path class="st2" d="M42.5,260.6c0.8-5.4,1.7-10.8,2.8-16.1l67.6,13.9c-0.8,3.9-1.5,7.9-2.1,11.9L42.5,260.6z">
<title>Cellos</title>
</path>
<path class="st2" d="M45.5,243.5c1.1-5.3,2.4-10.6,3.8-15.9l66.6,18c-1,3.9-2,7.8-2.8,11.7L45.5,243.5z">
<title>Double basses</title>
</path>
<path class="st2" d="M49.5,226.6c1.4-5.3,3-10.5,4.8-15.6l65.4,22.1c-1.3,3.8-2.5,7.7-3.5,11.5L49.5,226.6z">
<title>Harps</title>
</path>
<path class="st2" d="M54.6,210c1.8-5.2,3.7-10.3,5.7-15.3l63.8,26.2c-1.5,3.7-2.9,7.5-4.2,11.3L54.6,210z">
<title>Violas</title>
</path>
<path class="st2" d="M60.7,193.8c2.1-5,4.3-10,6.7-14.9l62.1,30.1c-1.7,3.6-3.4,7.3-4.9,11L60.7,193.8z">
<title>Violins 1</title>
</path>
<path class="st2" d="M67.8,177.9c2.4-4.9,4.9-9.7,7.6-14.5l60.1,33.9c-2,3.5-3.8,7.1-5.6,10.7L67.8,177.9z">
<title>Violins 2</title>
</path>
<path class="st2" d="M75.9,162.6c2.7-4.7,5.5-9.4,8.5-14l57.9,37.6c-2.2,3.4-4.3,6.8-6.2,10.3L75.9,162.6z">
<title>French Horns</title>
</path>
<path class="st2" d="M84.9,147.7c3-4.6,6.1-9.1,9.3-13.4l55.4,41.1c-2.4,3.2-4.7,6.5-6.9,9.9L84.9,147.7z">
<title>Trombones</title>
</path>
<path class="st2" d="M94.8,133.5c3.3-4.4,6.6-8.7,10.1-12.8l52.8,44.4c-2.6,3.1-5.1,6.2-7.5,9.5L94.8,133.5z">
<title>Trumpets</title>
</path>
<path class="st2" d="M105.6,119.9c3.5-4.2,7.2-8.2,10.9-12.2l49.9,47.6c-2.8,2.9-5.5,5.9-8.1,9L105.6,119.9z">
<title>Tubas</title>
</path>
<path class="st2" d="M117.2,107c3.8-3.9,7.7-7.8,11.7-11.5l46.9,50.7c-2.9,2.7-5.8,5.6-8.6,8.5L117.2,107z">
<title>Wagner Tuba</title>
</path>
<path class="st3" d="M129.6,94.9c4-3.7,8.1-7.3,12.3-10.7l43.6,53.5c-3.1,2.5-6.1,5.2-9.1,7.9L129.6,94.9z">
<title>Bassoons</title>
</path>
<path class="st3" d="M142.7,83.5c4.2-3.4,8.6-6.8,13-9.9l40.2,56.1c-3.3,2.4-6.5,4.8-9.6,7.3L142.7,83.5z">
<title>Clarinets</title>
</path>
<path class="st3" d="M156.5,73c4.4-3.2,9-6.2,13.6-9.1l36.6,58.5c-3.4,2.1-6.7,4.4-10,6.7L156.5,73z">
<title>Flutes</title>
</path>
<path class="st3" d="M170.9,63.3c4.6-2.9,9.3-5.6,14.1-8.3l32.9,60.6c-3.5,1.9-7,4-10.4,6.1L170.9,63.3z">
<title>Oboes</title>
</path>
<path class="st3" d="M185.9,54.6c4.8-2.6,9.7-5,14.6-7.4l29.1,62.6c-3.6,1.7-7.2,3.5-10.8,5.4L185.9,54.6z">
<title>Cellos</title>
</path>
<path class="st3" d="M201.4,46.8c4.9-2.3,10-4.4,15-6.4l25.2,64.2c-3.7,1.5-7.4,3.1-11.1,4.7L201.4,46.8z">
<title>Double basses</title>
</path>
<path class="st3" d="M217.4,40c5.1-2,10.2-3.8,15.4-5.5l21.1,65.7c-3.8,1.2-7.6,2.6-11.4,4L217.4,40z">
<title>Violas</title>
</path>
<path class="st3" d="M233.8,34.2c5.2-1.7,10.4-3.2,15.7-4.5l17,66.9c-3.9,1-7.8,2.1-11.6,3.3L233.8,34.2z">
<title>Violins 1</title>
</path>
<path class="st3" d="M250.4,29.5c5.3-1.3,10.6-2.5,16-3.5l12.8,67.8c-3.9,0.8-7.9,1.6-11.8,2.6L250.4,29.5z">
<title>Violins 2</title>
</path>
<path class="st3" d="M267.4,25.8c5.4-1,10.7-1.8,16.2-2.5l8.6,68.5c-4,0.5-8,1.1-11.9,1.9L267.4,25.8z">
<title>French Horns</title>
</path>
<path class="st3" d="M284.5,23.1c5.4-0.7,10.8-1.2,16.3-1.5l4.3,68.9c-4,0.3-8,0.6-12,1.1L284.5,23.1z">
<title>Trumpets</title>
</path>
<path class="st3" d="M301.8,21.5c5.4-0.3,10.9-0.5,16.3-0.5v69c-4,0-8,0.1-12.1,0.4L301.8,21.5z">
<title>Timpani</title>
</path>
<text transform="matrix(0.1549 -0.9879 0.9879 0.1549 347.582 141.4627)" class="st4 st5">Brass</text>
<text transform="matrix(0.6791 -0.7341 0.7341 0.6791 422.1472 194.043)" class="st4 st5">Percussion</text>
<text transform="matrix(0.9653 -0.2613 0.2613 0.9653 461.6529 265.4359)" class="st4 st5">Woodwinds</text>
<text transform="matrix(0.9989 -4.664039e-02 4.664039e-02 0.9989 467.858 297.0389)" class="st4 st5">Keyboards</text>
<text transform="matrix(0.9729 0.2312 -0.2312 0.9729 471.2534 340.3657)" class="st4 st5">Strings</text>
<text transform="matrix(0.7846 0.62 -0.62 0.7846 431.5634 394.3051)" class="st4 st5">Woodwinds</text>
<text transform="matrix(0.4218 0.9067 -0.9067 0.4218 377.4994 435.9151)" class="st4 st5">Percussion</text>
<text transform="matrix(3.109991e-02 0.9995 -0.9995 3.109991e-02 319.5846 457.824)" class="st4 st5">Strings</text>
<text transform="matrix(0.3061 -0.952 0.952 0.3061 264.6702 481.0587)" class="st4 st5">Brass</text>
<text transform="matrix(0.6559 -0.7548 0.7548 0.6559 188.5686 455.822)" class="st4 st5">Woodwinds</text>
<text transform="matrix(0.9567 -0.2912 0.2912 0.9567 126.6385 362.6391)" class="st4 st5">Percussion</text>
<text transform="matrix(0.997 7.768383e-02 -7.768383e-02 0.997 118.1299 288.3857)" class="st4 st5">Keyboards</text>
<text transform="matrix(0.9471 0.3208 -0.3208 0.9471 135.3298 242.1181)" class="st4 st5">Strings</text>
<text transform="matrix(0.7846 0.62 -0.62 0.7846 167.9872 186.0192)" class="st4 st5">Brass</text>
<text transform="matrix(0.5827 0.8127 -0.8127 0.5827 197.1532 137.3947)" class="st4 st5">Woodwinds</text>
<text transform="matrix(0.3355 0.942 -0.942 0.3355 250.4138 120.2604)" class="st4 st5">Strings</text>
<text transform="matrix(0.1241 0.9923 -0.9923 0.1241 291.265 113.0576)" class="st4 st5">Brass</text>
<text transform="matrix(3.109964e-02 0.9995 -0.9995 3.109964e-02 308.3969 98.2665)" class="st4 st5">Percussion</text>
<text transform="matrix(3.109991e-02 -0.9995 0.9995 3.109991e-02 329.2741 88.0057)" class="st4 st5">Baritone horn</text>
<text transform="matrix(9.317927e-02 -0.9956 0.9956 9.317927e-02 342.4587 88.8024)" class="st4 st5">French Horns</text>
<text transform="matrix(0.1549 -0.9879 0.9879 0.1549 356.4035 85.2)" class="st4 st5">Trombones</text>
<text transform="matrix(0.216 -0.9764 0.9764 0.216 370.6445 83.6227)" class="st4 st5">Trumpets</text>
<text transform="matrix(0.2763 -0.9611 0.9611 0.2763 386.2485 79.437)" class="st4 st5">Tubas</text>
<text transform="matrix(0.3355 -0.942 0.942 0.3355 395.7884 95.4124)" class="st4 st5">Bass Drum</text>
<text transform="matrix(0.3934 -0.9194 0.9194 0.3934 410.5446 95.4939)" class="st4 st5">Cymbals</text>
<text transform="matrix(0.4498 -0.8931 0.8931 0.4498 418.4564 110.7826)" class="st4 st5">Glockenspiel</text>
<text transform="matrix(0.5045 -0.8634 0.8634 0.5045 435.3552 108.2327)" class="st4 st5">Marimba</text>
<text transform="matrix(0.5572 -0.8304 0.8304 0.5572 442.7161 122.3186)" class="st4 st5">Snare Drum</text>
<text transform="matrix(0.6077 -0.7941 0.7941 0.6077 458.3091 124.1196)" class="st4 st5">Tam-tam</text>
<text transform="matrix(0.6559 -0.7548 0.7548 0.6559 463.873 139.0095)" class="st4 st5">Tambourine</text>
<text transform="matrix(0.7016 -0.7126 0.7126 0.7016 474.1865 147.7534)" class="st4 st5">Tenor drum</text>
<text transform="matrix(0.7445 -0.6676 0.6676 0.7445 489.553 152.1545)" class="st4 st5">Timpani</text>
<text transform="matrix(0.7846 -0.62 0.62 0.7846 498.3391 163.1231)" class="st4 st5">Triangle</text>
<text transform="matrix(0.8216 -0.57 0.57 0.8216 496.993 181.1542)" class="st4 st5">Tubular bells</text>
<text transform="matrix(0.8555 -0.5178 0.5178 0.8555 506.8876 190.7442)" class="st4 st5">Vibraphone</text>
<text transform="matrix(0.886 -0.4637 0.4637 0.886 512.5828 203.0401)" class="st4 st5">Wood block</text>
<text transform="matrix(0.9131 -0.4077 0.4077 0.9131 520.6857 214.1891)" class="st4 st5">Xylophone</text>
<text transform="matrix(0.9367 -0.3501 0.3501 0.9367 527.1848 226.3326)" class="st4 st5">Bassoons</text>
<text transform="matrix(0.9567 -0.2912 0.2912 0.9567 533.7529 238.7101)" class="st4 st5">Clarinets</text>
<text transform="matrix(0.9729 -0.2312 0.2312 0.9729 543.6389 250.6573)" class="st4 st5">Flutes</text>
<text transform="matrix(0.9854 -0.1702 0.1702 0.9854 545.4485 264.8807)" class="st4 st5">Oboes</text>
<text transform="matrix(0.9941 -0.1087 0.1087 0.9941 544.9774 279.2892)" class="st4 st5">Celesta</text>
<text transform="matrix(0.9989 -4.664039e-02 4.664039e-02 0.9989 549.9975 293.2037)" class="st4 st5">Piano</text>
<text transform="matrix(0.9999 1.555181e-02 -1.555181e-02 0.9999 537.7499 307.4079)" class="st4 st5">Pipe organ</text>
<text transform="matrix(0.997 7.768385e-02 -7.768385e-02 0.997 547.6653 321.8548)" class="st4 st5">Cellos</text>
<text transform="matrix(0.9902 0.1395 -0.1395 0.9902 525.7764 333.2186)" class="st4 st5">Double basses</text>
<text transform="matrix(0.9796 0.2008 -0.2008 0.9796 543.9988 350.2704)" class="st4 st5">Harps</text>
<text transform="matrix(0.9653 0.2613 -0.2613 0.9653 539.9874 364.0594)" class="st4 st5">Violas</text>
<text transform="matrix(0.9471 0.3208 -0.3208 0.9471 530.0525 375.8232)" class="st4 st5">Violins 1</text>
<text transform="matrix(0.9254 0.3791 -0.3791 0.9254 524.9296 388.8178)" class="st4 st5">Violins 2</text>
<text transform="matrix(0.9 0.4359 -0.4359 0.9 508.6708 396.4616)" class="st4 st5">Bass Clarinet</text>
<text transform="matrix(0.8712 0.491 -0.491 0.8712 509.3294 412.0453)" class="st4 st5">Bassoons</text>
<text transform="matrix(0.839 0.5442 -0.5442 0.839 504.0918 425.0419)" class="st4 st5">Clarinets</text>
<text transform="matrix(0.8035 0.5953 -0.5953 0.8035 483.6875 427.2347)" class="st4 st5">Contrabassoon</text>
<text transform="matrix(0.7649 0.6441 -0.6441 0.7649 479.7104 440.828)" class="st4 st5">English Horn</text>
<text transform="matrix(0.7234 0.6904 -0.6904 0.7234 482.4978 461.8807)" class="st4 st5">Flutes</text>
<text transform="matrix(0.6791 0.7341 -0.7341 0.6791 471.55 471.1394)" class="st4 st5">Oboes</text>
<text transform="matrix(0.6321 0.7749 -0.7749 0.6321 459.2084 478.5891)" class="st4 st5">Piccolo</text>
<text transform="matrix(0.5827 0.8127 -0.8127 0.5827 442.8133 479.9789)" class="st4 st5">Bass Drum</text>
<text transform="matrix(0.5311 0.8473 -0.8473 0.5311 434.3348 492.0565)" class="st4 st5">Cymbals</text>
<text transform="matrix(0.4774 0.8787 -0.8787 0.4774 417.2637 489.8418)" class="st4 st5">Glockenspiel</text>
<text transform="matrix(0.4218 0.9067 -0.9067 0.4218 406.4427 498.1251)" class="st4 st5">Snare Drum</text>
<text transform="matrix(0.3647 0.9311 -0.9311 0.3647 393.9929 503.2913)" class="st4 st5">Tambourine</text>
<text transform="matrix(0.3061 0.952 -0.952 0.3061 384.0136 516.3057)" class="st4 st5">Timpani</text>
<text transform="matrix(0.2463 0.9692 -0.9692 0.2463 370.4161 519.857)" class="st4 st5">Triangle</text>
<text transform="matrix(0.1855 0.9826 -0.9826 0.1855 357.4206 526.7435)" class="st4 st5">Cellos</text>
<text transform="matrix(0.1241 0.9923 -0.9923 0.1241 340.7318 508.5848)" class="st4 st5">Double basses</text>
<text transform="matrix(6.216959e-02 0.9981 -0.9981 6.216959e-02 329.0338 530.6298)" class="st4 st5">Harps</text>
<text transform="matrix(6.123234e-17 1 -1 6.123234e-17 314.676 530.3613)" class="st4 st5">Violas</text>
<text transform="matrix(6.216959e-02 -0.9981 0.9981 6.216959e-02 306.1641 565.2061)" class="st4 st5">Violins 1</text>
<text transform="matrix(0.1241 -0.9923 0.9923 0.1241 289.7005 563.9152)" class="st4 st5">Violins 2</text>
<text transform="matrix(0.1855 -0.9826 0.9826 0.1855 274.158 557.3188)" class="st4 st5">Cornet</text>
<text transform="matrix(0.2463 -0.9692 0.9692 0.2463 254.2092 569.943)" class="st4 st5">French Horns</text>
<text transform="matrix(0.3061 -0.952 0.952 0.3061 239.2522 560.1222)" class="st4 st5">Trombones</text>
<text transform="matrix(0.3647 -0.9311 0.9311 0.3647 224.8546 550.5441)" class="st4 st5">Trumpets</text>
<text transform="matrix(0.4218 -0.9067 0.9067 0.4218 212.8984 536.8361)" class="st4 st5">Tubas</text>
<text transform="matrix(0.4774 -0.8787 0.8787 0.4774 189.9748 545.2705)" class="st4 st5">Bass Clarinet</text>
<text transform="matrix(0.5311 -0.8473 0.8473 0.5311 179.2568 529.9639)" class="st4 st5">Bassoons</text>
<text transform="matrix(0.5827 -0.8127 0.8127 0.5827 166.6864 518.8201)" class="st4 st5">Clarinets</text>
<text transform="matrix(0.6321 -0.7749 0.7749 0.6321 143.7216 520.7823)" class="st4 st5">Contrabassoon</text>
<text transform="matrix(0.6791 -0.7341 0.7341 0.6791 134.1091 505.398)" class="st4 st5">English Horn</text>
<text transform="matrix(0.7234 -0.6904 0.6904 0.7234 133.551 482.2124)" class="st4 st5">Flutes</text>
<text transform="matrix(0.7649 -0.6441 0.6441 0.7649 121.9423 470.8888)" class="st4 st5">Oboes</text>
<text transform="matrix(0.8035 -0.5953 0.5953 0.8035 109.9119 459.6511)" class="st4 st5">Piccolo</text>
<text transform="matrix(0.839 -0.5442 0.5442 0.839 93.1618 451.0522)" class="st4 st5">Bass Drum</text>
<text transform="matrix(0.8712 -0.491 0.491 0.8712 91.4705 432.6464)" class="st4 st5">Chimes</text>
<text transform="matrix(0.9 -0.4359 0.4359 0.9 81.1607 419.4765)" class="st4 st5">Cymbals</text>
<text transform="matrix(0.9254 -0.3791 0.3791 0.9254 64.679 408.3764)" class="st4 st5">Glockenspiel</text>
<text transform="matrix(0.9471 -0.3208 0.3208 0.9471 61.0663 391.4839)" class="st4 st5">Snare Drum</text>
<text transform="matrix(0.9653 -0.2613 0.2613 0.9653 63.4795 373.2332)" class="st4 st5">Tam-tam</text>
<text transform="matrix(0.9796 -0.2008 0.2008 0.9796 51.8028 358.7875)" class="st4 st5">Tambourine</text>
<text transform="matrix(0.9902 -0.1395 0.1395 0.9902 57.7397 340.8037)" class="st4 st5">Timpani</text>
<text transform="matrix(0.997 -7.768383e-02 7.768383e-02 0.997 55.6127 324.5098)" class="st4 st5">Triangle</text>
<text transform="matrix(0.9999 -1.555170e-02 1.555170e-02 0.9999 48.2143 308.2071)" class="st4 st5">Xylophone</text>
<text transform="matrix(0.9989 4.664033e-02 -4.664033e-02 0.9989 55.9874 291.7391)" class="st4 st5">Celesta</text>
<text transform="matrix(0.9941 0.1087 -0.1087 0.9941 61.1592 275.8775)" class="st4 st5">Piano</text>
<text transform="matrix(0.9854 0.1702 -0.1702 0.9854 61.7857 259.6774)" class="st4 st5">Cellos</text>
<text transform="matrix(0.9729 0.2312 -0.2312 0.9729 45.0534 239.0951)" class="st4 st5">Double basses</text>
<text transform="matrix(0.9567 0.2912 -0.2912 0.9567 69.5719 228.3519)" class="st4 st5">Harps</text>
<text transform="matrix(0.9367 0.3501 -0.3501 0.9367 74.0713 212.8405)" class="st4 st5">Violas</text>
<text transform="matrix(0.9131 0.4077 -0.4077 0.9131 74.6373 195.4241)" class="st4 st5">Violins 1</text>
<text transform="matrix(0.886 0.4637 -0.4637 0.886 81.6108 180.4547)" class="st4 st5">Violins 2</text>
<text transform="matrix(0.8555 0.5178 -0.5178 0.8555 79.2071 159.716)" class="st4 st5">French Horns</text>
<text transform="matrix(0.8216 0.57 -0.57 0.8216 92.9573 148.2672)" class="st4 st5">Trombones</text>
<text transform="matrix(0.7846 0.62 -0.62 0.7846 106.3134 137.2829)" class="st4 st5">Trumpets</text>
<text transform="matrix(0.7445 0.6676 -0.6676 0.7445 122.9096 129.8371)" class="st4 st5">Tubas</text>
<text transform="matrix(0.7016 0.7126 -0.7126 0.7016 122.1097 106.0542)" class="st4 st5">Wagner Tuba</text>
<text transform="matrix(0.6559 0.7548 -0.7548 0.6559 139.2803 99.6546)" class="st4 st5">Bassoons</text>
<text transform="matrix(0.6077 0.7941 -0.7941 0.6077 153.6013 90.8745)" class="st4 st5">Clarinets</text>
<text transform="matrix(0.5572 0.8304 -0.8304 0.5572 170.6395 86.557)" class="st4 st5">Flutes</text>
<text transform="matrix(0.5045 0.8634 -0.8634 0.5045 183.7746 77.0456)" class="st4 st5">Oboes</text>
<text transform="matrix(0.4498 0.8931 -0.8931 0.4498 198.1456 69.585)" class="st4 st5">Cellos</text>
<text transform="matrix(0.3934 0.9194 -0.9194 0.3934 204.7228 43.8878)" class="st4 st5">Double basses</text>
<text transform="matrix(0.3355 0.942 -0.942 0.3355 227.7946 56.7536)" class="st4 st5">Violas</text>
<text transform="matrix(0.2763 0.9611 -0.9611 0.2763 241.4817 45.9685)" class="st4 st5">Violins 1</text>
<text transform="matrix(0.216 0.9764 -0.9764 0.216 257.4235 41.6608)" class="st4 st5">Violins 2</text>
<text transform="matrix(0.1549 0.9879 -0.9879 0.1549 271.7394 26.4641)" class="st4 st5">French Horns</text>
<text transform="matrix(9.317914e-02 0.9956 -0.9956 9.317914e-02 289.768 34.0317)" class="st4 st5">Trumpets</text>
<text transform="matrix(3.109964e-02 0.9995 -0.9995 3.109964e-02 306.4653 36.175)" class="st4 st5">Timpani</text>
<g transform="translate(0,16)">
	<g transform="translate(0, 0)">
		<rect x="659.8" y="60.3" class="st3" width="24.5" height="24.5"/>
		<text transform="matrix(1 0 0 1 692.5393 80.7256)" class="st6 st7">Classical orchestra</text>
	</g>
	<g transform="translate(0, 21)">
		<rect x="659.8" y="73.6" class="st1" width="24.5" height="24.5"/>
		<text transform="matrix(1 0 0 1 692.5393 94.0903)" class="st6 st7">Early Romantic orchestra</text>
	</g>
	<g transform="translate(0, 42)">
		<rect x="659.8" y="87" class="st2" width="24.5" height="24.5"/>
		<text transform="matrix(1 0 0 1 692.5393 107.4556)" class="st6 st7">Late Romantic orchestra</text>
	</g>
	<g transform="translate(0, 63)">
		<rect x="659.8" y="100.4" class="st0" width="24.5" height="24.5"/>
		<text transform="matrix(1 0 0 1 692.5393 120.8203)" class="st6 st7">Modern orchestra</text>
	</g>
</g>
<text transform="matrix(1 0 0 1 659.8108 50.0874)" class="st4 st8">Tipo de orquesta</text>
</svg>
